<?xml version="1.0" encoding="utf-8"?>
<!-- Generator: Adobe Illustrator 16.2.0, SVG Export Plug-In . SVG Version: 6.00 Build 0)  -->
<!DOCTYPE svg PUBLIC "-//W3C//DTD SVG 1.1//EN" "http://www.w3.org/Graphics/SVG/1.1/DTD/svg11.dtd">
<svg version="1.1" id="Layer_1" xmlns="http://www.w3.org/2000/svg" xmlns:xlink="http://www.w3.org/1999/xlink" x="0px" y="0px"
	 width="310.106px" height="120.591px" viewBox="0 0 310.106 120.591" enable-background="new 0 0 310.106 120.591"
	 xml:space="preserve">
<path fill-rule="evenodd" clip-rule="evenodd" fill="#70CACA" d="M82.965,24.535c-19.524,0-35.352,15.827-35.352,35.352
	s15.828,35.352,35.352,35.352c19.524,0,69.609-27.757,69.609-35.352C152.575,51.507,102.489,24.535,82.965,24.535z"/>
<circle fill="#FFFFFF" cx="82.418" cy="59.887" r="31.948"/>
<g>
	<polygon fill="#F15A22" points="73.158,44.513 55.265,61.565 91.049,61.565 	"/>
	<polygon fill="#F15A22" points="94.505,47.622 79.875,61.565 109.135,61.565 	"/>
	<rect x="60.045" y="61.565" fill="#F15A22" width="2.584" height="13.694"/>
	<rect x="55.264" y="72.676" fill="#F15A22" width="7.364" height="2.584"/>
	<rect x="84.138" y="61.565" fill="#F15A22" width="2.584" height="13.694"/>
	<rect x="84.138" y="72.676" fill="#F15A22" width="24.998" height="2.585"/>
	<rect x="68.894" y="63.569" fill="#F15A22" width="9.044" height="9.042"/>
	<rect x="90.856" y="63.569" fill="#F15A22" width="6.912" height="6.911"/>
	<rect x="103" y="61.565" fill="#F15A22" width="2.583" height="9.108"/>
</g>
<g>
	<path fill="#333333" d="M161.595,50.015h3.107l2.381,16.202l2.382-16.202h3.107l-3.05,19.801h-4.877L161.595,50.015z"/>
	<path fill="#333333" d="M173.773,69.815V50.015h8.478v2.831h-5.372v5.509h4.267v2.831h-4.267v5.8h5.372v2.83H173.773z"/>
	<path fill="#333333" d="M183.908,65.065V54.765c0-1.602,0.396-2.83,1.189-3.687c0.792-0.856,1.949-1.284,3.468-1.284
		c1.52,0,2.697,0.428,3.533,1.284s1.254,2.085,1.254,3.687v1.933h-3.107v-2.126c0-1.298-0.538-1.947-1.616-1.947
		c-1.077,0-1.615,0.65-1.615,1.949v10.697c0.009,1.29,0.55,1.936,1.623,1.936c1.082,0,1.618-0.646,1.608-1.939v-2.838h3.107v2.637
		c0,1.601-0.418,2.831-1.254,3.687c-0.836,0.856-2.014,1.284-3.533,1.284c-1.519,0-2.675-0.428-3.468-1.284
		C184.305,67.896,183.908,66.666,183.908,65.065z"/>
	<path fill="#333333" d="M195.08,69.815V50.015h3.106v19.801H195.08z"/>
	<path fill="#333333" d="M200.423,69.815V50.015h4.195l3.193,11.861V50.015h2.775v19.801h-3.202l-3.854-14.333v14.333H200.423z"/>
	<path fill="#333333" d="M212.519,69.815V50.015h4.916c3.093,0,4.639,1.634,4.639,4.902v10.011c0,3.259-1.546,4.888-4.639,4.888
		H212.519z M215.625,66.985h1.753c1.058,0,1.588-0.641,1.588-1.92V54.765c0-1.279-0.53-1.919-1.588-1.919h-1.753V66.985z"/>
	<path fill="#333333" d="M223.234,69.815l3.151-19.801h4.8l3.151,19.801h-3.107l-0.537-3.563h-3.817l-0.534,3.563H223.234z
		 M227.283,63.533h2.999l-1.504-9.968L227.283,63.533z"/>
	<path fill="#333333" d="M235.551,69.815V50.015h4.688c1.6,0,2.767,0.373,3.502,1.119s1.104,1.893,1.104,3.44v1.562
		c0,2.035-0.679,3.375-2.035,4.021c1.375,0.58,2.063,1.984,2.063,4.214v3.047c0,0.046,0,0.087,0,0.123
		c0,1.013,0.11,1.771,0.332,2.275h-3.149c-0.184-0.561-0.28-1.369-0.289-2.426v-3.102c0-0.901-0.159-1.546-0.477-1.937
		s-0.835-0.586-1.553-0.586h-1.078v8.05H235.551z M238.657,58.935h1.216c0.625,0,1.093-0.161,1.402-0.483
		c0.308-0.321,0.462-0.86,0.462-1.615v-1.947c0.009-1.362-0.516-2.043-1.574-2.043h-1.505V58.935z"/>
	<path fill="#333333" d="M246.914,69.815V50.015h3.107v19.801H246.914z"/>
	<path fill="#333333" d="M252.023,65.065V54.765c0-1.583,0.405-2.808,1.216-3.673c0.812-0.865,1.98-1.298,3.506-1.298
		s2.695,0.433,3.506,1.298s1.216,2.09,1.216,3.673v10.301c0,1.583-0.405,2.809-1.216,3.673c-0.811,0.865-1.98,1.298-3.506,1.298
		s-2.694-0.433-3.506-1.298C252.429,67.874,252.023,66.648,252.023,65.065z M255.13,65.246c0.009,1.298,0.55,1.951,1.623,1.96
		c1.081,0,1.617-0.653,1.608-1.96V54.569c0-1.297-0.539-1.945-1.616-1.945s-1.615,0.648-1.615,1.945V65.246z"/>
</g>
<g>
	<path fill-rule="evenodd" clip-rule="evenodd" fill="#70CACA" stroke="#67BBB1" stroke-miterlimit="10" d="M82.524,22.724
		c-20.345,0-36.838,16.492-36.838,36.837c0,20.345,16.493,36.838,36.838,36.838s72.536-28.924,72.536-36.838
		C155.061,50.83,102.87,22.724,82.524,22.724z"/>
	<circle fill="#FFFFFF" stroke="#67BBB1" stroke-miterlimit="10" cx="81.955" cy="59.562" r="33.291"/>
	<g>
		<polygon fill="#F15A22" points="72.304,43.542 53.659,61.313 90.949,61.313 		"/>
		<polygon fill="#F15A22" points="94.55,46.781 79.305,61.313 109.795,61.313 		"/>
		<rect x="58.641" y="61.313" fill="#F15A22" width="2.692" height="14.269"/>
		<rect x="53.659" y="72.889" fill="#F15A22" width="7.673" height="2.692"/>
		<rect x="83.747" y="61.313" fill="#F15A22" width="2.692" height="14.269"/>
		<rect x="83.747" y="72.889" fill="#F15A22" width="26.049" height="2.693"/>
		<rect x="67.861" y="63.398" fill="#F15A22" width="9.424" height="9.423"/>
		<rect x="90.747" y="63.398" fill="#F15A22" width="7.202" height="7.201"/>
		<rect x="103.401" y="61.313" fill="#F15A22" width="2.692" height="9.49"/>
	</g>
</g>
</svg>
